<?xml version="1.0" encoding="utf-8"?>
<!-- Uploaded to: SVG Repo, www.svgrepo.com, Generator: SVG Repo Mixer Tools -->
<svg width="800px" height="800px" viewBox="0 0 1024 1024" class="icon"  version="1.1" xmlns="http://www.w3.org/2000/svg"><path d="M512 243.2c-6.4 0-19.2-6.4-19.2-19.2V147.2c0-12.8 12.8-19.2 19.2-19.2 6.4 0 19.2 6.4 19.2 19.2v76.8c0 12.8-6.4 19.2-19.2 19.2zM518.4 896c-6.4 0-19.2-6.4-19.2-19.2v-76.8c0-12.8 6.4-19.2 19.2-19.2 6.4 0 19.2 6.4 19.2 19.2v76.8c-6.4 12.8-12.8 19.2-19.2 19.2z" fill="#FDD000" /><path d="M876.8 537.6h-76.8c-6.4 0-19.2-6.4-19.2-19.2 0-12.8 6.4-19.2 19.2-19.2h76.8c12.8 0 19.2 12.8 19.2 19.2 0 12.8-6.4 19.2-19.2 19.2zM224 537.6H147.2c-12.8 0-19.2-6.4-19.2-12.8 0-12.8 6.4-19.2 19.2-19.2h76.8c6.4 0 19.2 6.4 19.2 19.2 0 6.4-6.4 12.8-19.2 12.8z" fill="#FDD000" /><path d="M716.8 332.8c-6.4 0-6.4 0-12.8-6.4s-6.4-19.2 0-25.6l57.6-57.6c6.4-6.4 19.2-6.4 25.6 0 6.4 6.4 6.4 19.2 0 25.6l-57.6 57.6c-6.4 6.4-12.8 6.4-12.8 6.4zM256 800c-6.4 0-6.4 0-12.8-6.4s-6.4-19.2 0-25.6l57.6-57.6c6.4-6.4 19.2-6.4 25.6 0 6.4 6.4 6.4 19.2 0 25.6l-57.6 57.6c-6.4 0-6.4 6.4-12.8 6.4z" fill="#FDD000" /><path d="M768 800c-6.4 0-6.4 0-12.8-6.4l-57.6-57.6c-6.4-6.4-6.4-19.2 0-25.6 6.4-6.4 19.2-6.4 25.6 0l57.6 57.6c6.4 6.4 6.4 19.2 0 25.6-6.4 6.4-12.8 6.4-12.8 6.4zM300.8 339.2c-6.4 0-6.4 0-12.8-6.4l-51.2-51.2c-6.4-6.4-6.4-19.2 0-25.6 6.4-6.4 12.8-6.4 19.2 0l57.6 57.6c6.4 6.4 6.4 12.8 0 25.6h-12.8z" fill="#FDD000" /><path d="M518.4 710.4c-121.6 0-217.6-89.6-217.6-217.6 0-102.4 83.2-179.2 179.2-179.2 83.2 0 147.2 64 147.2 147.2 0 70.4-57.6 121.6-121.6 121.6-57.6 6.4-102.4-44.8-102.4-96 0-44.8 38.4-83.2 83.2-83.2 38.4 0 70.4 32 70.4 70.4 0 32-25.6 57.6-57.6 57.6-25.6 0-51.2-25.6-51.2-51.2 0-12.8 6.4-19.2 19.2-19.2 6.4 0 19.2 6.4 19.2 19.2 0 6.4 6.4 19.2 19.2 19.2 12.8 0 25.6-12.8 25.6-25.6-6.4-25.6-19.2-38.4-44.8-38.4-25.6 0-51.2 25.6-51.2 51.2 0 38.4 32 64 64 64 51.2 0 89.6-38.4 89.6-89.6 0-64-51.2-115.2-115.2-115.2-83.2 0-147.2 64-147.2 147.2 0 102.4 76.8 179.2 185.6 179.2 57.6 0 108.8-25.6 147.2-70.4 38.4-44.8 44.8-108.8 32-166.4 0-6.4 0-19.2 12.8-19.2 6.4 0 19.2 0 19.2 12.8 19.2 70.4 6.4 140.8-38.4 198.4-38.4 51.2-102.4 83.2-166.4 83.2z" fill="#FDD000" /></svg>